HIERARCHY
ROOT Hips
{
  OFFSET 0 0 0
  CHANNELS 6 Xposition Yposition Zposition Zrotation Yrotation Xrotation
  JOINT LeftThigh
  {
    OFFSET 8.409438 0 -5.917753
    CHANNELS 3 Zrotation Yrotation Xrotation
    JOINT LeftLeg
    {
      OFFSET 0 0 -42.358652
      CHANNELS 3 Zrotation Yrotation Xrotation
      JOINT LeftFoot
      {
        OFFSET 0 0 -39.357303
        CHANNELS 3 Zrotation Yrotation Xrotation
      }
    }
  }
  JOINT RightThigh
  {
    OFFSET -8.409438 0 -5.917753
    CHANNELS 3 Zrotation Yrotation Xrotation
    JOINT RightLeg
    {
      OFFSET 0 0 -42.358652
      CHANNELS 3 Zrotation Yrotation Xrotation
      JOINT RightFoot
      {
        OFFSET 0 0 -39.357303
        CHANNELS 3 Zrotation Yrotation Xrotation
      }
    }
  }
  JOINT SpineLow
  {
    OFFSET 0 0 4.719101
    CHANNELS 3 Zrotation Yrotation Xrotation
    JOINT SpineMid
    {
      OFFSET 0 0 12.899191
      CHANNELS 3 Zrotation Yrotation Xrotation
      JOINT Chest
      {
        OFFSET 0 0 12.899191
        CHANNELS 3 Zrotation Yrotation Xrotation
        JOINT LeftShoulder
        {
          OFFSET 7.550562 1.41573 9.438202
          CHANNELS 3 Zrotation Yrotation Xrotation
          JOINT LeftArm
          {
            OFFSET 9.155056 0 4.247191
            CHANNELS 3 Zrotation Yrotation Xrotation
            JOINT LeftForearm
            {
              OFFSET 0 0 25.771955
              CHANNELS 3 Zrotation Yrotation Xrotation
              JOINT LeftHand
              {
                OFFSET 0 0 25.197169
                CHANNELS 3 Zrotation Yrotation Xrotation
              }
            }
          }
        }
        JOINT RightShoulder
        {
          OFFSET -7.550562 1.41573 9.438202
          CHANNELS 3 Zrotation Yrotation Xrotation
          JOINT RightArm
          {
            OFFSET -9.155056 0 4.247191
            CHANNELS 3 Zrotation Yrotation Xrotation
            JOINT RightForearm
            {
              OFFSET 0 0 -25.771955
              CHANNELS 3 Zrotation Yrotation Xrotation
              JOINT RightHand
              {
                OFFSET 0 0 -25.197169
                CHANNELS 3 Zrotation Yrotation Xrotation
              }
            }
          }
        }
        JOINT Neck
        {
          OFFSET 0 0 15.101124
          CHANNELS 3 Zrotation Yrotation Xrotation
          JOINT Head
          {
            OFFSET 0 0 11.325843
            CHANNELS 3 Zrotation Yrotation Xrotation
            End Site
            {
              OFFSET 0 0 14.157303
            }
          }
        }
      }
    }
  }
}
MOTION
Frames: 8
Frame Time: 0.0
0.0  93.25843  0.0  19.560432  -4.745025  -118.235329  49.91788  -3.63274  -112.680017  13.141757  39.822  105.103256  1.295336  -5.133801  3.291257  -11.198964  14.967859  11.230025  4.150659  11.073131  14.504657  9.309833  2.654229  3.417163  1.844365  1.511109  2.653963  5.205924  3.919546  7.372827  5.205924  3.919546  7.372827  -18.973502  18.319568  3.706369  178.94189  60.755336  -125.176849  -13.798394  -38.155506  73.154975  -87.402863  -57.096485  126.916644  3.215755  -5.686019  21.043429  109.217783  57.907402  30.240207  -37.937168  38.072945  -49.73451  52.578247  -61.528727  85.349506  4.721761  4.817038  11.201798  3.452121  3.700999  8.359707  
0.0  93.25843  0.0  20.349614  -5.172979  -118.889959  50.912609  -2.747782  -113.944918  13.339575  39.968049  105.377169  0.46677  -5.451079  3.839454  -9.500155  15.067665  12.29168  4.233359  11.435772  14.720397  9.068861  2.866803  3.406599  1.516728  1.503619  2.769264  4.316473  3.928217  7.66883  4.316473  3.928217  7.668831  -15.526175  21.019248  4.327444  178.897943  56.771006  -127.783286  -14.9962  -35.237945  73.756108  -71.276788  -48.603608  115.580252  4.222177  -5.44332  22.350095  106.76524  54.687753  30.598328  -36.19203  36.35165  -51.257006  42.787169  -55.675098  90.273071  6.304551  5.508675  10.813329  4.628746  4.245058  8.047795  
0.0  93.25843  0.0  20.933172  -5.529326  -119.276694  50.810719  -2.173569  -112.945146  11.092215  39.874432  102.512897  -0.177245  -5.232671  4.355024  -8.20814  15.041115  13.006233  4.47263  11.779587  15.031522  8.867315  3.072017  3.393149  1.126523  1.429093  2.870706  3.247124  3.765234  7.919391  3.247124  3.765234  7.919392  -11.606124  24.092315  5.218361  179.444025  52.858378  -130.098907  -16.434283  -31.981653  74.87877  -58.384237  -37.545305  106.925621  5.714426  -5.02967  23.235083  104.309661  51.574139  31.762486  -33.919988  33.290021  -52.483541  36.904201  -48.15833  90.976361  7.849288  6.476666  10.260328  5.773473  4.991733  7.605046  
0.0  93.25843  0.0  21.323309  -5.779558  -119.382459  51.679478  -0.737265  -114.840163  11.372846  40.707637  104.113515  -0.631564  -4.925621  4.716773  -7.36897  14.924424  13.326816  4.712575  12.113254  15.376363  8.791354  3.166089  3.397227  0.72787  1.345206  2.913313  2.150203  3.582776  8.010201  2.150203  3.582776  8.0102  -7.687086  27.409848  6.529748  179.782748  49.666001  -132.567978  -17.353061  -29.583752  74.952732  -48.055645  -29.5495  104.188538  7.000751  -4.253355  24.352038  102.374708  48.690099  33.067821  -31.765313  30.158511  -53.498695  35.716621  -40.697078  87.219905  9.421284  7.296021  9.816924  6.940768  5.626373  7.241762  
0.0  93.25843  0.0  21.503228  -5.799416  -119.301284  51.835037  0.022543  -116.20008  14.431636  42.272388  108.021217  0.942861  -5.916508  4.113434  -7.101185  14.854067  13.318264  5.002165  12.35423  15.747187  8.864739  3.366169  3.440058  0.601884  1.237663  3.00498  1.797375  3.302005  8.250402  1.797375  3.302005  8.250402  -6.671508  30.764428  7.088444  -179.015435  47.126952  -134.887762  -17.133122  -27.384999  74.016365  -38.657031  -22.404152  103.399214  6.388064  -3.13424  25.317282  101.142188  46.015389  34.154785  -30.854636  27.029854  -54.867566  35.379328  -29.110802  87.517854  9.409449  7.93232  9.094391  6.928899  6.092251  6.688929  
0.0  93.25843  0.0  21.342237  -5.440112  -119.059565  51.336504  0.0997  -116.647667  15.722424  42.074466  108.547564  0.06677  -5.984789  4.85033  -7.470828  14.773792  13.052814  5.293258  12.460139  16.15728  9.030846  3.37438  3.531376  0.479306  1.291631  2.969597  1.467658  3.465406  8.149255  1.467658  3.465406  8.149255  -6.307679  32.37083  8.170781  -177.246439  44.230571  -137.229143  -16.959075  -25.205654  72.161099  -29.069936  -16.287846  104.822577  5.618761  -2.825581  27.007755  101.127622  43.08538  35.354518  -32.490472  24.89772  -56.254523  33.405298  -23.625693  88.884198  9.354757  7.274742  8.700924  6.904225  5.591886  6.406807  
0.0  93.25843  0.0  20.832435  -4.883379  -118.717222  50.613457  -0.060406  -116.770617  16.029281  41.204138  108.725507  -1.741721  -5.451152  5.363322  -8.047521  14.485348  12.72001  5.49482  12.469844  16.627997  8.993028  3.433331  3.525723  0.520502  1.342961  2.986099  1.587472  3.599942  8.198193  1.587473  3.599943  8.198193  -7.14969  32.465531  9.072329  -176.786638  40.680365  -140.210632  -17.816104  -23.273653  70.746836  -18.719856  -11.888611  107.23331  3.968885  -2.716509  28.648071  101.507777  40.651947  35.917568  -34.148838  25.721468  -56.185238  29.678459  -21.968408  86.156165  8.390328  6.253504  8.138304  6.204234  4.803788  6.012854  
0.0  93.25843  0.0  20.101582  -4.324598  -118.411541  49.12578  -0.10161  -116.015642  15.518866  40.543009  109.037236  -1.422616  -4.955071  5.476219  -8.550197  13.939449  12.472619  5.516307  12.352618  17.03301  9.172584  3.435758  3.657336  0.704099  1.284783  3.115417  2.088066  3.414094  8.55933  2.088066  3.414094  8.55933  -8.421719  31.687408  10.584681  -178.132715  36.426902  -142.420524  -19.556118  -22.597734  69.878115  -9.720111  -8.51624  109.4235  2.035055  -2.845531  29.118698  100.808137  39.028968  36.657607  -34.871077  25.158368  -56.155091  29.081276  -16.084073  80.413415  6.797719  5.574233  7.343502  5.027961  4.263623  5.441906  
